<svg width="30" height="26" viewBox="0 0 30 26" fill="none" xmlns="http://www.w3.org/2000/svg">
<path fill-rule="evenodd" clip-rule="evenodd" d="M19.3656 3.47987C19.3656 3.33992 19.1915 3.13158 19.0522 3.0605C18.214 2.57334 17.3769 3.20051 16.5387 3.20051C16.2242 3.20051 15.9109 3.27045 15.6675 3.09604C15.6675 2.95609 15.8046 2.92109 15.8046 2.78222C15.5975 2.78222 15.3513 2.71221 15.1079 2.67775C15.1079 2.67775 14.5853 2.6422 14.2692 2.53834C13.1193 2.05058 12.0371 1.80454 10.7131 2.43333C10.2934 2.60774 9.87598 2.78222 9.42162 2.78222C9.21126 2.78222 9.73342 3.20051 9.66509 3.40993C8.96896 3.51541 8.34004 3.72267 7.74634 4.28199V4.31598C8.16437 4.84084 8.79434 4.90922 9.42162 4.90922C9.62981 4.90922 10.0137 5.39806 10.9913 5.53801C12.4214 5.81582 13.2597 5.01363 14.2692 5.43199C14.2019 5.25697 14.2019 5.15257 14.2019 5.01363C15.3882 5.32914 16.33 5.29197 17.2387 4.84084C18.0752 4.62872 18.4591 3.44439 19.3656 3.47987Z" fill="black"/>
<path fill-rule="evenodd" clip-rule="evenodd" d="M6.07482 3.8078L7.06794 3.22508C7.25332 3.26406 7.25332 3.45911 7.36256 3.57673C7.62224 3.49755 7.51011 3.10927 7.65948 2.91422C7.80532 2.91422 7.80532 3.14893 7.91633 3.26406C8.1726 3.26406 8.09765 2.83801 8.21155 2.64296C8.35797 2.41014 8.76302 2.4875 8.68919 2.09868L8.32079 0.349297C8.27732 0.141027 8.16978 0.0456601 8.09765 0.0762126C6.77568 0.582116 5.7425 1.08802 4.49082 1.55373C4.38099 1.59392 4.2322 1.64977 4.08754 1.59392L2.06118 0C2.17213 0.931413 2.28256 1.78837 2.35633 2.33332C2.36944 2.43415 2.35174 2.4875 2.28256 2.4875C1.8781 2.4875 1.48964 2.78938 1.25226 3.22508C0.904984 3.85818 0.590361 4.43133 0 4.70259C0.109836 4.97567 0.330689 5.13046 0.55259 5.20728C0.735082 5.28592 0.921575 5.24687 1.10525 5.36335C1.10525 5.44131 1.06748 5.48212 1.03141 5.55718C0.552591 6.45137 1.15443 7.65762 0.235148 8.31837C0.640722 8.51214 1.2522 8.31837 1.584 7.93003L1.64813 7.96429C1.39069 8.58478 1.28885 9.30192 1.32485 9.99087C1.32485 9.99087 1.35351 10.1523 1.28885 10.3539C1.28885 10.3539 1.2202 10.5784 1.17902 10.69C2.35981 10.486 2.80426 8.8872 2.8941 8.61479L2.99876 8.64298C2.99876 8.64298 2.60518 9.79885 2.94617 10.3C3.02164 10.4139 3.15495 10.5268 3.28367 10.5112C3.42269 9.9531 3.71843 9.24972 4.19666 8.86326C4.63889 8.90103 5.08112 9.13452 5.52276 9.32836C5.78073 8.66942 5.21666 7.69302 5.21666 7.69302L5.26473 7.65397L5.33797 7.73504C5.33797 7.73504 5.70637 8.1617 5.89115 8.31831C6.11023 8.47437 6.77555 8.62801 7.14283 8.39519C7.27155 8.31412 7.47404 8.12447 7.51004 7.96847C6.33168 8.0465 6.25725 6.49156 5.70637 5.75277L5.74243 5.71318C6.03876 5.86925 6.18519 6.29712 6.47981 6.45137C6.47981 6.45137 8.02499 6.78926 8.08899 6.80302C8.19653 6.82528 8.23889 6.64581 8.23889 6.64581C8.25378 6.593 8.40138 5.97541 8.32073 5.67541C8.13712 5.55718 8.06388 5.86925 7.91627 5.86925C7.51011 5.75277 7.25325 5.71318 6.81043 5.51813L6.07482 3.96387C6.01876 3.84678 6.07482 3.8078 6.07482 3.8078ZM5.48617 2.79727C5.48617 3.06975 5.30086 3.26413 5.04341 3.26413C4.82256 3.26413 4.63896 3.06975 4.63896 2.79727C4.63896 2.52662 4.82256 2.33339 5.04341 2.33339C5.30086 2.33339 5.48617 2.52662 5.48617 2.79727Z" fill="black"/>
<path fill-rule="evenodd" clip-rule="evenodd" d="M7.88608 17.1382C7.43087 17.0583 6.92425 16.9478 6.45893 16.6934C6.45893 16.6934 6.34752 16.6232 6.34752 16.7342V17.4745C6.34411 17.7607 6.58897 18.1123 7.4411 18.0372C7.4411 18.0372 7.59651 18.3765 6.79533 18.7317C6.49907 18.8629 6.61893 19.0801 6.61893 19.0801C6.61893 19.0801 6.72352 19.3529 7.41677 19.5659C7.17139 20.0895 6.60195 20.12 6.70661 20.4319C6.70661 20.4319 6.775 20.6619 7.20418 20.787C7.07185 21.2252 6.67775 21.3808 6.56582 21.6334C6.44818 21.9056 6.81631 22.1131 6.78575 22.1351C6.16831 22.5599 5.71369 23.1408 5.63625 23.452C5.41966 24.1234 5.30038 24.91 5.16018 25.5691C5.11264 25.79 4.86726 25.9804 4.70379 25.9889C4.1051 26.0139 3.65211 25.9896 3.13198 25.9852C2.96005 25.984 3.03356 25.8473 3.03356 25.8473C3.58313 24.7763 4.83729 23.8988 4.63369 22.5769C4.08811 19.0276 3.12405 16.9747 2.58123 13.8703C2.37316 12.6803 2.34883 11.4702 2.69546 10.473C2.78759 10.9593 3.331 11.4128 3.76693 11.3969C3.94844 10.7263 4.32444 9.61557 4.58116 9.57524C4.87231 9.53558 5.8771 10.0989 5.8771 10.0989C6.16825 9.80044 6.24405 9.35921 6.2712 9.00776C6.59802 9.16457 6.93218 9.24328 7.37211 9.1243C8.13428 8.88622 8.24176 8.62939 8.49559 8.31328C8.78451 9.35868 8.36667 10.0665 8.2632 10.4358C8.2632 10.4358 8.24792 10.487 8.26602 10.5175C8.27395 10.5285 8.29828 10.5615 8.37179 10.523C8.64543 10.3838 8.92477 10.155 9.07684 10.0116C9.27192 9.82917 9.81474 9.09315 9.81474 9.09315C10.1252 9.60215 10.05 10.3405 9.85094 10.8348C9.85094 10.8348 9.75592 11.024 9.97533 10.9813C10.5249 10.8751 10.9332 9.73394 11.3188 9.54111C11.3188 9.54111 11.3533 9.52398 11.3544 9.54476C11.3872 10.0543 11.3714 10.808 11.5675 11.1711C11.5675 11.1711 11.6094 11.2724 11.6739 11.1651C11.8769 10.8196 12.2258 9.90666 12.6018 9.82364C12.5916 10.4064 12.7165 11.2834 12.9557 11.3115C13.1616 11.3341 13.3492 10.7525 13.4425 10.5071C13.5551 10.2117 13.7004 9.97377 13.844 9.97377C13.8802 10.4882 14.0606 11.2614 14.4473 11.2724C14.63 11.2779 14.5903 10.916 14.63 10.6481C14.7006 10.1837 14.9161 10.0574 14.9161 10.0574C15.0337 10.4852 15.1886 10.8037 15.5052 11.0332C15.5974 11.0991 15.7195 11.1186 15.7195 10.9258C15.7167 10.5077 15.7982 10.152 15.9502 9.9994C15.9638 10.0617 16.0435 10.2051 16.1063 10.2953C16.2782 10.5431 16.4608 10.667 16.726 10.5792C16.8442 10.5395 16.9561 10.3838 16.9753 10.263C16.7679 9.92737 16.5004 9.3812 16.4648 8.98517C16.3919 8.39078 16.6463 7.87752 17.0839 7.64194C17.4085 7.44297 17.8857 7.40332 18.1752 7.67977C18.3584 7.85378 18.5048 8.10575 18.5048 8.39381C18.5048 8.63243 18.4076 8.86734 18.2119 8.98517C18.1371 9.02908 18.0513 9.04894 17.9654 9.0422C17.8796 9.03546 17.7976 9.00241 17.7302 8.94733C17.5968 8.84171 17.4837 8.62939 17.3728 8.55008C17.266 8.82593 17.4475 9.1438 17.5917 9.34094C17.8908 9.70406 18.2787 9.61557 18.4302 9.50935C19.3756 8.75936 19.1942 7.9971 19.7759 6.45558C19.9105 6.10891 20.0767 5.76603 20.2752 5.45113C20.2995 5.41025 20.3239 5.37053 20.347 5.33458C20.8106 4.57846 21.6017 4.08044 22.5007 4.08044C23.9307 4.08044 25.087 5.33883 25.087 6.89074C25.087 7.66271 24.8014 8.36326 24.3372 8.86984C24.2954 8.91556 24.2513 8.96014 24.2089 8.99798C24.0132 9.17003 23.9759 9.34154 24.0692 9.41904C24.3627 9.65644 24.434 9.69792 24.6516 9.97377C25.5625 11.1595 25.9606 12.5429 26.4717 13.9258C26.6035 14.2609 26.7867 14.6698 27.0163 14.9139C27.4086 15.3325 27.7671 15.4808 28.2913 15.5492C28.3354 15.554 28.0148 15.9739 28.2551 16.1393C28.4355 16.2637 28.9778 16.2131 29.1592 16.0947C29.2333 16.6885 28.3818 16.9247 28.4355 17.1285C28.4807 17.2988 28.8731 17.4562 29.3452 17.3806C29.2299 17.8351 28.7725 17.8351 28.7646 18.1171C28.7549 18.399 29.0043 18.5315 29.3679 18.4461C29.3679 18.4461 29.2355 18.6847 28.9336 19.013C28.6029 19.3725 28.7951 19.8308 28.7951 19.8308C28.9319 20.1523 29.0733 20.5215 29.4244 20.8303C29.6675 21.0452 29.8547 21.1581 30 21.3564C29.0614 21.9038 29.2751 22.8204 29.2384 23.2916C29.213 23.4393 29.0919 23.4521 29.0919 23.4521L27.1734 23.7743C27.0163 23.8006 26.8964 23.737 27.0779 23.5045C27.5449 22.9028 28.1239 22.3042 28.453 21.6701C28.4021 21.4504 28.2998 21.2185 28.1539 20.9628C27.5257 19.8753 26.945 18.8671 26.3637 17.7614C26.297 17.6362 26.1071 17.6039 26.1071 17.6039C24.6878 17.3244 23.0549 16.8532 22.0003 16.1276C21.924 16.1039 21.9279 16.2082 21.9279 16.2082C21.9251 16.4981 21.9053 17.1846 22.0184 17.364C22.3627 17.9066 23.2776 17.6448 23.415 17.6406C23.38 18.0195 23.186 18.227 22.8332 18.4668C22.8332 18.4668 22.7637 18.5113 22.7919 18.5821C22.845 18.717 23.1561 18.6456 23.4382 18.5351C23.2878 19.1271 22.7987 19.0917 22.8422 19.3011C22.8683 19.4292 23.0271 19.5464 23.1945 19.5366C22.9124 19.9431 22.5053 20.0053 22.5053 20.3122L22.5787 21.7146C22.5787 21.7146 22.5787 21.7573 22.5584 21.7823C22.5296 21.8202 22.4685 21.8312 22.4685 21.8312L20.6003 22.3096C20.5568 22.3194 20.4929 22.3133 20.4488 22.2449C20.3996 22.1754 20.4675 22.0692 20.4675 22.0692L21.6685 20.0895C21.7414 19.6556 21.4485 19.381 21.2664 19.0264C20.8672 18.4693 20.4302 18.0372 19.9569 17.7211C19.5667 17.1938 19.5368 16.5964 19.4525 16.2699C19.4208 16.1454 19.301 16.1985 19.1981 16.3016C18.9448 16.5786 18.701 16.9131 18.5387 17.2847C18.4579 17.4709 18.6094 17.6051 18.8373 17.671C18.9736 17.7107 19.2043 17.7382 19.4485 17.6344C19.4864 18.0042 19.077 18.2745 18.8401 18.3972C18.8401 18.3972 18.7582 18.4338 18.8147 18.49C18.9555 18.6352 19.2139 18.6358 19.4044 18.598C19.4044 18.598 19.3422 18.9526 18.8599 19.2687C18.4692 19.5256 19.1087 19.5037 19.1986 19.4616C19.1088 19.7209 18.7564 20.0541 18.6473 20.2903C18.4014 20.8236 18.5761 21.4766 18.5387 22.0704C18.5031 22.1876 18.3861 22.2474 18.2487 22.2675L16.2822 22.3456C16.1662 22.3456 16.1776 22.1931 16.2448 22.1076L17.6279 20.2903C17.7342 20.1365 17.6324 20.0322 17.5865 19.9668C16.9725 19.1003 16.428 18.1934 16.03 17.2054C15.7382 17.2439 15.2621 17.405 15.1942 17.715C15.136 17.9835 15.7003 18.0372 15.9564 18.0372C15.9564 18.0372 15.9955 18.3143 15.2683 18.5882C15.2683 18.5882 14.8742 18.7268 14.7566 18.9227C14.7566 18.9227 14.7147 18.9818 14.7702 19.0252C14.9285 19.1564 15.3345 19.1649 15.3955 19.1649C15.1049 19.5982 14.2596 19.5824 14.0911 19.7447C14.0046 19.8264 14.1934 20.0138 14.6899 20.0071C14.4405 20.3635 14.017 20.3079 13.6416 20.4349C13.6416 20.4349 13.473 20.4734 13.5245 20.5765C13.6591 20.8474 13.9921 20.7742 13.8949 20.8944C13.7643 21.0562 13.39 21.1593 13.1881 21.2288C13.0179 21.2844 12.9348 21.3967 12.9348 21.3967C12.7912 21.5559 12.8381 21.7579 12.7437 22.0143C12.5978 22.4122 12.3982 22.8656 12.146 23.2055C12.146 23.2055 12.107 23.2726 12.0437 23.2159L10.7319 22.071C10.6227 21.9727 10.6833 21.8251 10.6833 21.8251C10.8059 21.5437 11.0774 21.4834 11.3341 21.3167C11.6829 21.0873 12.0465 20.8408 12.3597 20.4532C12.4276 20.369 12.4372 20.2836 12.4372 20.2836C12.5876 19.2516 12.8952 18.3021 13.1078 17.3006C13.1644 16.9912 12.8482 17.0613 12.8482 17.0613C12.4146 17.1376 11.709 17.3488 10.5345 17.2341C10.4288 17.2243 10.4005 17.2737 10.3118 17.4947C10.1981 17.7736 10.0494 17.9725 10.206 18.1946C10.474 18.5791 11.2249 18.2807 11.2119 18.3149C10.9614 19.0038 10.266 18.8739 9.98044 19.2772C9.98044 19.2772 9.8792 19.4005 9.96235 19.5061C10.0426 19.608 10.3434 19.6544 10.8189 19.5238C10.8189 19.5238 10.6205 20.0102 10.1913 20.153C9.83625 20.2726 9.60949 20.3201 9.55349 20.4959C9.52241 20.632 9.63382 20.7455 10.1919 20.6869C10.1919 20.6869 10.0613 21.1428 9.55349 21.2996C9.24025 21.3967 9.1792 21.6139 9.08989 21.7921C8.875 22.2199 8.83153 22.8089 8.56857 23.2085C8.56857 23.2085 8.52667 23.2708 8.44071 23.1884L7.31782 22.1113C7.27487 22.0716 7.25618 22.0332 7.25618 22.0332C7.1493 21.8672 7.4693 21.6951 7.59146 21.5877C7.88267 21.3344 8.36556 21.1068 8.42379 20.6033C8.51034 19.8478 8.23323 19.3926 8.04838 18.7475C7.91546 18.2849 7.90923 17.6997 7.94149 17.2371C7.94713 17.1492 7.88608 17.1382 7.88608 17.1382ZM19.1115 9.94322C19.0873 9.97134 19.0765 10.0104 19.1217 10.0116C19.5197 10.0116 19.9568 9.73643 20.321 9.45809C20.7864 9.13341 21.194 8.57807 21.5107 8.06185C21.773 8.3236 22.1202 8.48412 22.5035 8.48412C23.3093 8.48412 23.9635 7.77318 23.9635 6.89802C23.9635 6.0211 23.3093 5.30524 22.5035 5.30524C22.4679 5.30342 22.3922 5.30646 22.3599 5.30767C21.7041 5.34679 21.2664 5.74471 20.8305 6.61185C20.4675 7.36366 19.9942 8.94612 19.159 9.89385C19.159 9.89385 19.1393 9.91273 19.1115 9.94329" fill="black"/>
</svg>
